<mxfile host="app.diagrams.net" modified="2024-05-28T02:01:10.531Z" agent="Mozilla/5.0 (Macintosh; Intel Mac OS X 10_15_7) AppleWebKit/537.36 (KHTML, like Gecko) Chrome/125.0.0.0 Safari/537.36" etag="ocIub2l2KxxvBzlep1Ja" version="24.4.4" type="device">
  <diagram name="Página-1" id="DaBPKAgMP9bzV5uPvlg7">
    <mxGraphModel dx="1706" dy="1286" grid="0" gridSize="10" guides="1" tooltips="1" connect="1" arrows="1" fold="1" page="0" pageScale="1" pageWidth="827" pageHeight="1169" math="0" shadow="0">
      <root>
        <mxCell id="0" />
        <mxCell id="1" parent="0" />
        <mxCell id="tKnI33wy97ES_1b7GDza-1" value="&lt;b&gt;&lt;font style=&quot;font-size: 15px;&quot;&gt;&amp;nbsp; &amp;nbsp;sa-east-1 (São Paulo)&lt;/font&gt;&lt;/b&gt;" style="shape=mxgraph.ibm.box;prType=region;fontStyle=0;verticalAlign=top;align=left;spacingLeft=32;spacingTop=4;fillColor=default;rounded=0;whiteSpace=wrap;html=1;strokeColor=#66B2FF;strokeWidth=2;dashed=0;container=0;spacing=-4;collapsible=0;expand=0;recursiveResize=0;movable=1;resizable=1;rotatable=1;deletable=1;editable=1;locked=0;connectable=1;" vertex="1" parent="1">
          <mxGeometry x="-15" y="-254" width="1032" height="869" as="geometry" />
        </mxCell>
        <mxCell id="tKnI33wy97ES_1b7GDza-3" value="&lt;b&gt;VPC&lt;/b&gt;" style="sketch=0;outlineConnect=0;gradientColor=none;html=1;whiteSpace=wrap;fontSize=12;fontStyle=0;shape=mxgraph.aws4.group;grIcon=mxgraph.aws4.group_vpc;strokeColor=#009900;fillColor=none;verticalAlign=top;align=left;spacingLeft=30;fontColor=#879196;dashed=0;movable=1;resizable=1;rotatable=1;deletable=1;editable=1;locked=0;connectable=1;" vertex="1" parent="1">
          <mxGeometry x="65" y="-202" width="914" height="762" as="geometry" />
        </mxCell>
        <mxCell id="tKnI33wy97ES_1b7GDza-23" value="Security group" style="fillColor=none;strokeColor=#DD3522;verticalAlign=top;fontStyle=0;fontColor=#DD3522;whiteSpace=wrap;html=1;" vertex="1" parent="1">
          <mxGeometry x="260.5" y="273" width="195" height="163" as="geometry" />
        </mxCell>
        <mxCell id="tKnI33wy97ES_1b7GDza-4" value="Public subnet" style="points=[[0,0],[0.25,0],[0.5,0],[0.75,0],[1,0],[1,0.25],[1,0.5],[1,0.75],[1,1],[0.75,1],[0.5,1],[0.25,1],[0,1],[0,0.75],[0,0.5],[0,0.25]];outlineConnect=0;gradientColor=none;html=1;whiteSpace=wrap;fontSize=12;fontStyle=0;container=1;pointerEvents=0;collapsible=0;recursiveResize=0;shape=mxgraph.aws4.group;grIcon=mxgraph.aws4.group_security_group;grStroke=0;strokeColor=#7AA116;fillColor=#F2F6E8;verticalAlign=top;align=left;spacingLeft=30;fontColor=#248814;dashed=0;" vertex="1" parent="1">
          <mxGeometry x="204" y="200" width="342" height="303" as="geometry" />
        </mxCell>
        <mxCell id="tKnI33wy97ES_1b7GDza-8" value="&lt;b&gt;&lt;font color=&quot;#999999&quot; style=&quot;font-size: 17px;&quot;&gt;VPC 10.0.1.0/24&lt;/font&gt;&lt;/b&gt;" style="text;html=1;align=center;verticalAlign=middle;whiteSpace=wrap;rounded=0;fontSize=16;" vertex="1" parent="tKnI33wy97ES_1b7GDza-4">
          <mxGeometry x="62.75" y="29" width="182.5" height="22" as="geometry" />
        </mxCell>
        <mxCell id="tKnI33wy97ES_1b7GDza-33" value="Security group" style="fillColor=none;strokeColor=#DD3522;verticalAlign=top;fontStyle=0;fontColor=#DD3522;whiteSpace=wrap;html=1;" vertex="1" parent="1">
          <mxGeometry x="270" y="282" width="191" height="163" as="geometry" />
        </mxCell>
        <mxCell id="tKnI33wy97ES_1b7GDza-7" value="&lt;b&gt;&lt;font color=&quot;#999999&quot; style=&quot;font-size: 17px;&quot;&gt;VPC 10.0.0.0/16&lt;/font&gt;&lt;/b&gt;" style="text;html=1;align=center;verticalAlign=middle;whiteSpace=wrap;rounded=0;fontSize=16;" vertex="1" parent="1">
          <mxGeometry x="393" y="-194" width="199" height="30" as="geometry" />
        </mxCell>
        <mxCell id="tKnI33wy97ES_1b7GDza-12" value="&lt;b&gt;Internet&lt;br&gt;Gateway&lt;br&gt;(igw)&lt;/b&gt;" style="sketch=0;outlineConnect=0;fontColor=#232F3E;gradientColor=none;fillColor=#8C4FFF;strokeColor=none;dashed=0;verticalLabelPosition=bottom;verticalAlign=top;align=center;html=1;fontSize=12;fontStyle=0;aspect=fixed;pointerEvents=1;shape=mxgraph.aws4.internet_gateway;" vertex="1" parent="1">
          <mxGeometry x="35" y="70" width="59" height="59" as="geometry" />
        </mxCell>
        <mxCell id="tKnI33wy97ES_1b7GDza-14" value="&lt;b&gt;Route Table&lt;br&gt;B&lt;/b&gt;" style="sketch=0;outlineConnect=0;fontColor=#232F3E;gradientColor=none;fillColor=#8C4FFF;strokeColor=none;dashed=0;verticalLabelPosition=bottom;verticalAlign=top;align=center;html=1;fontSize=12;fontStyle=0;aspect=fixed;pointerEvents=1;shape=mxgraph.aws4.route_table;" vertex="1" parent="1">
          <mxGeometry x="418" y="-67" width="53.37" height="52" as="geometry" />
        </mxCell>
        <mxCell id="tKnI33wy97ES_1b7GDza-36" style="edgeStyle=none;curved=1;rounded=0;orthogonalLoop=1;jettySize=auto;html=1;fontSize=12;startSize=8;endSize=8;startArrow=classic;startFill=1;" edge="1" parent="1" source="tKnI33wy97ES_1b7GDza-15" target="tKnI33wy97ES_1b7GDza-12">
          <mxGeometry relative="1" as="geometry" />
        </mxCell>
        <mxCell id="tKnI33wy97ES_1b7GDza-15" value="&lt;b&gt;Route Table&lt;br&gt;A&lt;/b&gt;" style="sketch=0;outlineConnect=0;fontColor=#232F3E;gradientColor=none;fillColor=#8C4FFF;strokeColor=none;dashed=0;verticalLabelPosition=bottom;verticalAlign=top;align=center;html=1;fontSize=12;fontStyle=0;aspect=fixed;pointerEvents=1;shape=mxgraph.aws4.route_table;" vertex="1" parent="1">
          <mxGeometry x="179" y="70" width="59.53" height="58" as="geometry" />
        </mxCell>
        <mxCell id="tKnI33wy97ES_1b7GDza-16" value="Private subnet" style="points=[[0,0],[0.25,0],[0.5,0],[0.75,0],[1,0],[1,0.25],[1,0.5],[1,0.75],[1,1],[0.75,1],[0.5,1],[0.25,1],[0,1],[0,0.75],[0,0.5],[0,0.25]];outlineConnect=0;gradientColor=none;html=1;whiteSpace=wrap;fontSize=12;fontStyle=0;container=1;pointerEvents=0;collapsible=0;recursiveResize=0;shape=mxgraph.aws4.group;grIcon=mxgraph.aws4.group_security_group;grStroke=0;strokeColor=#00A4A6;fillColor=#E6F6F7;verticalAlign=top;align=left;spacingLeft=30;fontColor=#147EBA;dashed=0;" vertex="1" parent="1">
          <mxGeometry x="556" y="202" width="341" height="301" as="geometry" />
        </mxCell>
        <mxCell id="tKnI33wy97ES_1b7GDza-17" value="&lt;b&gt;&lt;font color=&quot;#999999&quot; style=&quot;font-size: 17px;&quot;&gt;VPC 10.0.4.0/24&lt;/font&gt;&lt;/b&gt;" style="text;html=1;align=center;verticalAlign=middle;whiteSpace=wrap;rounded=0;fontSize=16;" vertex="1" parent="tKnI33wy97ES_1b7GDza-16">
          <mxGeometry x="71" y="18" width="199" height="25" as="geometry" />
        </mxCell>
        <mxCell id="tKnI33wy97ES_1b7GDza-19" value="&lt;b&gt;EC2&lt;/b&gt;" style="sketch=0;points=[[0,0,0],[0.25,0,0],[0.5,0,0],[0.75,0,0],[1,0,0],[0,1,0],[0.25,1,0],[0.5,1,0],[0.75,1,0],[1,1,0],[0,0.25,0],[0,0.5,0],[0,0.75,0],[1,0.25,0],[1,0.5,0],[1,0.75,0]];outlineConnect=0;fontColor=#232F3E;fillColor=#ED7100;strokeColor=#ffffff;dashed=0;verticalLabelPosition=bottom;verticalAlign=top;align=center;html=1;fontSize=12;fontStyle=0;aspect=fixed;shape=mxgraph.aws4.resourceIcon;resIcon=mxgraph.aws4.ec2;" vertex="1" parent="tKnI33wy97ES_1b7GDza-16">
          <mxGeometry x="127.5" y="116" width="78" height="78" as="geometry" />
        </mxCell>
        <mxCell id="tKnI33wy97ES_1b7GDza-26" value="(private database)" style="text;html=1;align=center;verticalAlign=middle;whiteSpace=wrap;rounded=0;fontSize=16;" vertex="1" parent="tKnI33wy97ES_1b7GDza-16">
          <mxGeometry x="115" y="250" width="133" height="30" as="geometry" />
        </mxCell>
        <mxCell id="tKnI33wy97ES_1b7GDza-21" value="Security group" style="fillColor=none;strokeColor=#DD3522;verticalAlign=top;fontStyle=0;fontColor=#DD3522;whiteSpace=wrap;html=1;" vertex="1" parent="1">
          <mxGeometry x="629" y="282" width="195" height="163" as="geometry" />
        </mxCell>
        <mxCell id="tKnI33wy97ES_1b7GDza-27" value="public front-end" style="text;html=1;align=center;verticalAlign=middle;whiteSpace=wrap;rounded=0;fontSize=16;" vertex="1" parent="1">
          <mxGeometry x="301" y="445" width="133" height="30" as="geometry" />
        </mxCell>
        <mxCell id="tKnI33wy97ES_1b7GDza-28" value="&lt;b&gt;Internet&lt;br&gt;(Inbound&lt;br&gt;Outbound)&lt;/b&gt;" style="outlineConnect=0;dashed=0;verticalLabelPosition=bottom;verticalAlign=top;align=center;html=1;shape=mxgraph.aws3.internet_2;fillColor=#D2D3D3;gradientColor=none;" vertex="1" parent="1">
          <mxGeometry x="-128" y="70" width="56" height="41" as="geometry" />
        </mxCell>
        <mxCell id="tKnI33wy97ES_1b7GDza-29" value="&lt;b&gt;Client&lt;br&gt;(http, ssh etc..)&lt;/b&gt;" style="points=[[0.35,0,0],[0.98,0.51,0],[1,0.71,0],[0.67,1,0],[0,0.795,0],[0,0.65,0]];verticalLabelPosition=bottom;sketch=0;html=1;verticalAlign=top;aspect=fixed;align=center;pointerEvents=1;shape=mxgraph.cisco19.user;fillColor=#005073;strokeColor=none;" vertex="1" parent="1">
          <mxGeometry x="-254" y="74" width="50" height="50" as="geometry" />
        </mxCell>
        <mxCell id="tKnI33wy97ES_1b7GDza-6" value="Private subnet" style="points=[[0,0],[0.25,0],[0.5,0],[0.75,0],[1,0],[1,0.25],[1,0.5],[1,0.75],[1,1],[0.75,1],[0.5,1],[0.25,1],[0,1],[0,0.75],[0,0.5],[0,0.25]];outlineConnect=0;gradientColor=none;html=1;whiteSpace=wrap;fontSize=12;fontStyle=0;container=1;pointerEvents=0;collapsible=0;recursiveResize=0;shape=mxgraph.aws4.group;grIcon=mxgraph.aws4.group_security_group;grStroke=0;strokeColor=#00A4A6;fillColor=#E6F6F7;verticalAlign=top;align=left;spacingLeft=30;fontColor=#147EBA;dashed=0;" vertex="1" parent="1">
          <mxGeometry x="552" y="-109" width="341" height="301" as="geometry" />
        </mxCell>
        <mxCell id="tKnI33wy97ES_1b7GDza-10" value="&lt;b&gt;&lt;font color=&quot;#999999&quot; style=&quot;font-size: 17px;&quot;&gt;VPC 10.0.3.0/24&lt;/font&gt;&lt;/b&gt;" style="text;html=1;align=center;verticalAlign=middle;whiteSpace=wrap;rounded=0;fontSize=16;" vertex="1" parent="tKnI33wy97ES_1b7GDza-6">
          <mxGeometry x="73.75" y="28" width="193.5" height="23" as="geometry" />
        </mxCell>
        <mxCell id="tKnI33wy97ES_1b7GDza-18" value="&lt;b&gt;EC2&lt;/b&gt;" style="sketch=0;points=[[0,0,0],[0.25,0,0],[0.5,0,0],[0.75,0,0],[1,0,0],[0,1,0],[0.25,1,0],[0.5,1,0],[0.75,1,0],[1,1,0],[0,0.25,0],[0,0.5,0],[0,0.75,0],[1,0.25,0],[1,0.5,0],[1,0.75,0]];outlineConnect=0;fontColor=#232F3E;fillColor=#ED7100;strokeColor=#ffffff;dashed=0;verticalLabelPosition=bottom;verticalAlign=top;align=center;html=1;fontSize=12;fontStyle=0;aspect=fixed;shape=mxgraph.aws4.resourceIcon;resIcon=mxgraph.aws4.ec2;" vertex="1" parent="tKnI33wy97ES_1b7GDza-6">
          <mxGeometry x="125" y="111.5" width="78" height="78" as="geometry" />
        </mxCell>
        <mxCell id="tKnI33wy97ES_1b7GDza-34" value="&lt;b&gt;EC2&lt;/b&gt;" style="sketch=0;points=[[0,0,0],[0.25,0,0],[0.5,0,0],[0.75,0,0],[1,0,0],[0,1,0],[0.25,1,0],[0.5,1,0],[0.75,1,0],[1,1,0],[0,0.25,0],[0,0.5,0],[0,0.75,0],[1,0.25,0],[1,0.5,0],[1,0.75,0]];outlineConnect=0;fontColor=#232F3E;fillColor=#ED7100;strokeColor=#ffffff;dashed=0;verticalLabelPosition=bottom;verticalAlign=top;align=center;html=1;fontSize=12;fontStyle=0;aspect=fixed;shape=mxgraph.aws4.resourceIcon;resIcon=mxgraph.aws4.ec2;" vertex="1" parent="1">
          <mxGeometry x="328.5" y="324.5" width="78" height="78" as="geometry" />
        </mxCell>
        <mxCell id="tKnI33wy97ES_1b7GDza-35" style="edgeStyle=orthogonalEdgeStyle;rounded=0;orthogonalLoop=1;jettySize=auto;html=1;entryX=0.356;entryY=0.528;entryDx=0;entryDy=0;entryPerimeter=0;fontSize=12;startSize=8;endSize=8;startArrow=classic;startFill=1;" edge="1" parent="1" source="tKnI33wy97ES_1b7GDza-15" target="tKnI33wy97ES_1b7GDza-3">
          <mxGeometry relative="1" as="geometry">
            <Array as="points">
              <mxPoint x="390" y="104" />
            </Array>
          </mxGeometry>
        </mxCell>
        <mxCell id="tKnI33wy97ES_1b7GDza-37" style="edgeStyle=none;curved=1;rounded=0;orthogonalLoop=1;jettySize=auto;html=1;entryX=1;entryY=0.7;entryDx=0;entryDy=0;entryPerimeter=0;fontSize=12;startSize=8;endSize=8;startArrow=classic;startFill=1;" edge="1" parent="1" source="tKnI33wy97ES_1b7GDza-12" target="tKnI33wy97ES_1b7GDza-28">
          <mxGeometry relative="1" as="geometry" />
        </mxCell>
        <mxCell id="tKnI33wy97ES_1b7GDza-38" style="edgeStyle=none;curved=1;rounded=0;orthogonalLoop=1;jettySize=auto;html=1;entryX=0;entryY=0.7;entryDx=0;entryDy=0;entryPerimeter=0;fontSize=12;startSize=8;endSize=8;startArrow=classic;startFill=1;" edge="1" parent="1" source="tKnI33wy97ES_1b7GDza-29" target="tKnI33wy97ES_1b7GDza-28">
          <mxGeometry relative="1" as="geometry" />
        </mxCell>
        <mxCell id="tKnI33wy97ES_1b7GDza-39" style="edgeStyle=orthogonalEdgeStyle;rounded=0;orthogonalLoop=1;jettySize=auto;html=1;fontSize=12;startSize=8;endSize=8;startArrow=classic;startFill=1;" edge="1" parent="1" source="tKnI33wy97ES_1b7GDza-18" target="tKnI33wy97ES_1b7GDza-14">
          <mxGeometry relative="1" as="geometry">
            <Array as="points">
              <mxPoint x="570" y="42" />
              <mxPoint x="570" y="-41" />
            </Array>
          </mxGeometry>
        </mxCell>
        <mxCell id="tKnI33wy97ES_1b7GDza-22" value="Security group" style="fillColor=none;strokeColor=#DD3522;verticalAlign=top;fontStyle=0;fontColor=#DD3522;whiteSpace=wrap;html=1;" vertex="1" parent="1">
          <mxGeometry x="629" y="-24" width="195" height="163" as="geometry" />
        </mxCell>
        <mxCell id="tKnI33wy97ES_1b7GDza-25" value="(private compute)" style="text;html=1;align=center;verticalAlign=middle;whiteSpace=wrap;rounded=0;fontSize=16;" vertex="1" parent="1">
          <mxGeometry x="656" y="148" width="133" height="30" as="geometry" />
        </mxCell>
      </root>
    </mxGraphModel>
  </diagram>
</mxfile>
